<?xml version="1.0" encoding="iso-8859-1"?>
<!-- Generator: Adobe Illustrator 19.0.0, SVG Export Plug-In . SVG Version: 6.00 Build 0)  -->
<svg version="1.1" id="Capa_1" xmlns="http://www.w3.org/2000/svg" xmlns:xlink="http://www.w3.org/1999/xlink" x="0px" y="0px"
	 viewBox="0 0 469.333 469.333" style="enable-background:new 0 0 469.333 469.333;" xml:space="preserve">
<path style="fill:#303C42;" d="M458.667,181.333c5.896,0,10.667-4.771,10.667-10.667S464.563,160,458.667,160h-32v-42.667h32
	c5.896,0,10.667-4.771,10.667-10.667c0-5.896-4.771-10.667-10.667-10.667h-32V85.333c0-23.531-19.135-42.667-42.667-42.667h-10.667
	v-32C373.333,4.771,368.563,0,362.667,0C356.771,0,352,4.771,352,10.667v32h-42.667v-32C309.333,4.771,304.563,0,298.667,0
	C292.771,0,288,4.771,288,10.667v32h-42.667v-32C245.333,4.771,240.563,0,234.667,0S224,4.771,224,10.667v32h-42.667v-32
	C181.333,4.771,176.563,0,170.667,0S160,4.771,160,10.667v32h-42.667v-32C117.333,4.771,112.563,0,106.667,0
	C100.771,0,96,4.771,96,10.667v32H85.333c-23.531,0-42.667,19.135-42.667,42.667V96h-32C4.771,96,0,100.771,0,106.667
	c0,5.896,4.771,10.667,10.667,10.667h32V160h-32C4.771,160,0,164.771,0,170.667s4.771,10.667,10.667,10.667h32V224h-32
	C4.771,224,0,228.771,0,234.667s4.771,10.667,10.667,10.667h32V288h-32C4.771,288,0,292.771,0,298.667
	c0,5.896,4.771,10.667,10.667,10.667h32V352h-32C4.771,352,0,356.771,0,362.667c0,5.896,4.771,10.667,10.667,10.667h32V384
	c0,23.531,19.135,42.667,42.667,42.667H96v32c0,5.896,4.771,10.667,10.667,10.667c5.896,0,10.667-4.771,10.667-10.667v-32H160v32
	c0,5.896,4.771,10.667,10.667,10.667s10.667-4.771,10.667-10.667v-32H224v32c0,5.896,4.771,10.667,10.667,10.667
	s10.667-4.771,10.667-10.667v-32H288v32c0,5.896,4.771,10.667,10.667,10.667c5.896,0,10.667-4.771,10.667-10.667v-32H352v32
	c0,5.896,4.771,10.667,10.667,10.667c5.896,0,10.667-4.771,10.667-10.667v-32H384c23.531,0,42.667-19.135,42.667-42.667v-10.667h32
	c5.896,0,10.667-4.771,10.667-10.667c0-5.896-4.771-10.667-10.667-10.667h-32v-42.667h32c5.896,0,10.667-4.771,10.667-10.667
	c0-5.896-4.771-10.667-10.667-10.667h-32v-42.667h32c5.896,0,10.667-4.771,10.667-10.667S464.563,224,458.667,224h-32v-42.667
	H458.667z"/>
<path style="fill:#7CB342;" d="M405.333,384c0,11.76-9.573,21.333-21.333,21.333H85.333C73.573,405.333,64,395.76,64,384V85.333
	C64,73.573,73.573,64,85.333,64H384c11.76,0,21.333,9.573,21.333,21.333V384z"/>
<path style="fill:#303C42;" d="M373.333,85.333H96c-5.896,0-10.667,4.771-10.667,10.667v277.333C85.333,379.229,90.104,384,96,384
	h277.333c5.896,0,10.667-4.771,10.667-10.667V96C384,90.104,379.229,85.333,373.333,85.333z"/>
<rect id="SVGCleanerId_0" x="106.667" y="106.667" style="fill:#F2F2F2;" width="256" height="256"/>
<g>
	<rect id="SVGCleanerId_0_1_" x="106.667" y="106.667" style="fill:#F2F2F2;" width="256" height="256"/>
</g>
<linearGradient id="SVGID_1_" gradientUnits="userSpaceOnUse" x1="-56.0352" y1="613.1464" x2="-48.328" y2="605.4461" gradientTransform="matrix(21.3333 0 0 -21.3333 1430.1112 13315.2227)">
	<stop  offset="0" style="stop-color:#000000;stop-opacity:0.1"/>
	<stop  offset="1" style="stop-color:#000000;stop-opacity:0"/>
</linearGradient>
<path style="fill:url(#SVGID_1_);" d="M381.219,88.961L381.219,88.961C382.9,90.846,384,93.272,384,96v277.333
	c0,5.896-4.771,10.667-10.667,10.667H96c-2.88,0-5.47-1.167-7.389-3.018l-0.005,0.005l24.345,24.346H384
	c11.76,0,21.333-9.573,21.333-21.333V113.076L381.219,88.961z"/>
<path style="fill:#303C42;" d="M234.667,352c52.938,0,96-40.156,96-89.51c0-2.604-0.188-5.031-0.542-9.323
	c-2.917-35.125-20.271-56.708-35.583-75.76c-12.938-16.083-24.104-29.979-24.104-49.406c0-3.927-2.167-7.531-5.604-9.396
	c-3.479-1.875-7.688-1.656-10.938,0.5c-23.292,15.375-42.75,41.427-49.604,66.375c-3.708,13.625-4.875,28.385-5.229,40.135
	c-11.063-7.073-13.938-24.156-14.083-25.063c-0.521-3.271-2.542-6.146-5.458-7.719c-2.938-1.563-6.396-1.76-9.438-0.365
	c-1.229,0.542-29.729,13.906-31.292,64.823c-0.125,1.729-0.125,3.469-0.125,5.198C138.667,311.844,181.729,352,234.667,352z"/>
<linearGradient id="SVGID_2_" gradientUnits="userSpaceOnUse" x1="-56.0365" y1="613.5446" x2="-56.0365" y2="607.1511" gradientTransform="matrix(21.3333 0 0 -21.3333 1430.1112 13315.2227)">
	<stop  offset="0" style="stop-color:#FFFFFF;stop-opacity:0.5"/>
	<stop  offset="1" style="stop-color:#FFFFFF;stop-opacity:0"/>
</linearGradient>
<path style="fill:url(#SVGID_2_);" d="M324.488,226.271l-0.079,0.013c2.794,8.064,4.885,16.875,5.716,26.883
	c0.354,4.292,0.542,6.719,0.542,9.323c0,49.354-43.063,89.51-96,89.51s-96-40.156-96-89.51c0-1.729,0-3.469,0.125-5.198
	l-32.125,32.125v73.25h256v-98.216L324.488,226.271z"/>
<path style="fill:#FFCA28;" d="M169.458,221.708c-4.396,6.979-8.792,18.448-9.354,36.667C160,260.021,160,261.26,160,262.49
	c0,37.594,33.5,68.177,74.667,68.177s74.667-30.583,74.667-68.177c0-2-0.167-3.844-0.313-5.698
	c-2.542-30.469-17.063-48.542-31.104-66.021c-10.375-12.896-21-26.104-25.958-42.833c-12.792,12.323-23,28.271-27.083,43.177
	c-4.646,17-4.646,37.281-4.646,48.188c0,5.896-4.771,10.667-10.667,10.667C188.604,249.969,176.063,235.781,169.458,221.708z"/>
<path style="fill:#FF6F00;" d="M200.408,273.423c-2.309,3.667-4.619,9.692-4.914,19.263c-0.055,0.865-0.055,1.516-0.055,2.162
	c0,19.751,17.6,35.818,39.227,35.818s39.227-16.068,39.227-35.818c0-1.051-0.088-2.019-0.164-2.993
	c-1.335-16.007-8.964-25.502-16.341-34.685c-5.451-6.775-11.033-13.714-13.638-22.503c-6.72,6.474-12.083,14.853-14.229,22.684
	c-2.441,8.931-2.441,19.586-2.441,25.316c0,3.097-2.506,5.604-5.604,5.604C210.467,288.271,203.878,280.817,200.408,273.423z"/>
<linearGradient id="SVGID_3_" gradientUnits="userSpaceOnUse" x1="-67.4125" y1="618.4561" x2="-44.6604" y2="607.846" gradientTransform="matrix(21.3333 0 0 -21.3333 1430.1112 13315.2227)">
	<stop  offset="0" style="stop-color:#FFFFFF;stop-opacity:0.2"/>
	<stop  offset="1" style="stop-color:#FFFFFF;stop-opacity:0"/>
</linearGradient>
<path style="fill:url(#SVGID_3_);" d="M458.667,181.333c5.896,0,10.667-4.771,10.667-10.667S464.563,160,458.667,160h-32v-42.667h32
	c5.896,0,10.667-4.771,10.667-10.667c0-5.896-4.771-10.667-10.667-10.667h-32V85.333c0-23.531-19.135-42.667-42.667-42.667h-10.667
	v-32C373.333,4.771,368.563,0,362.667,0C356.771,0,352,4.771,352,10.667v32h-42.667v-32C309.333,4.771,304.563,0,298.667,0
	C292.771,0,288,4.771,288,10.667v32h-42.667v-32C245.333,4.771,240.563,0,234.667,0S224,4.771,224,10.667v32h-42.667v-32
	C181.333,4.771,176.563,0,170.667,0S160,4.771,160,10.667v32h-42.667v-32C117.333,4.771,112.563,0,106.667,0
	C100.771,0,96,4.771,96,10.667v32H85.333c-23.531,0-42.667,19.135-42.667,42.667V96h-32C4.771,96,0,100.771,0,106.667
	c0,5.896,4.771,10.667,10.667,10.667h32V160h-32C4.771,160,0,164.771,0,170.667s4.771,10.667,10.667,10.667h32V224h-32
	C4.771,224,0,228.771,0,234.667s4.771,10.667,10.667,10.667h32V288h-32C4.771,288,0,292.771,0,298.667
	c0,5.896,4.771,10.667,10.667,10.667h32V352h-32C4.771,352,0,356.771,0,362.667c0,5.896,4.771,10.667,10.667,10.667h32V384
	c0,23.531,19.135,42.667,42.667,42.667H96v32c0,5.896,4.771,10.667,10.667,10.667c5.896,0,10.667-4.771,10.667-10.667v-32H160v32
	c0,5.896,4.771,10.667,10.667,10.667s10.667-4.771,10.667-10.667v-32H224v32c0,5.896,4.771,10.667,10.667,10.667
	s10.667-4.771,10.667-10.667v-32H288v32c0,5.896,4.771,10.667,10.667,10.667c5.896,0,10.667-4.771,10.667-10.667v-32H352v32
	c0,5.896,4.771,10.667,10.667,10.667c5.896,0,10.667-4.771,10.667-10.667v-32H384c23.531,0,42.667-19.135,42.667-42.667v-10.667h32
	c5.896,0,10.667-4.771,10.667-10.667c0-5.896-4.771-10.667-10.667-10.667h-32v-42.667h32c5.896,0,10.667-4.771,10.667-10.667
	c0-5.896-4.771-10.667-10.667-10.667h-32v-42.667h32c5.896,0,10.667-4.771,10.667-10.667S464.563,224,458.667,224h-32v-42.667
	H458.667z"/>
<g>
</g>
<g>
</g>
<g>
</g>
<g>
</g>
<g>
</g>
<g>
</g>
<g>
</g>
<g>
</g>
<g>
</g>
<g>
</g>
<g>
</g>
<g>
</g>
<g>
</g>
<g>
</g>
<g>
</g>
</svg>
